# 3ds Max Wavefront OBJ Exporter v0.97b - (c)2007 guruware
# File Created: 16.11.2021 01:07:13

mtllib stonefence.mtl

#
# object strandkerites
#

v  -4175.9375 134.2645 1945.2198
v  -4163.7178 134.2645 1945.2198
v  -4163.7178 134.2645 1584.5803
v  -4175.9375 134.2645 1584.5803
v  -4175.9375 2.4487 1945.2198
v  -4163.7178 2.4487 1945.2198
v  -4163.7178 130.5256 1945.2198
v  -4175.9375 130.5256 1945.2198
v  -4163.7178 2.4487 1584.5803
v  -4163.7178 130.5256 1584.5803
v  -4175.9375 2.4487 1584.5803
v  -4175.9375 130.5256 1584.5803
v  -4162.2100 130.5256 1946.0313
v  -4162.2100 133.4306 1946.0313
v  -4177.4453 133.4306 1946.0313
v  -4177.4453 130.5256 1946.0313
v  -4162.2100 130.5256 1583.7689
v  -4162.2100 133.4306 1583.7689
v  -4177.4453 130.5256 1583.7689
v  -4177.4453 133.4306 1583.7689
# 20 vertices

vn -0.1913 0.9627 0.1913
vn 0.1913 0.9627 0.1913
vn 0.1913 0.9627 -0.1913
vn -0.1913 0.9627 -0.1913
vn -0.7071 0.0000 0.7071
vn 0.7071 0.0000 0.7071
vn 0.3015 -0.9045 0.3015
vn -0.3015 -0.9045 0.3015
vn 0.7071 0.0000 -0.7071
vn 0.3015 -0.9045 -0.3015
vn -0.7071 0.0000 -0.7071
vn -0.3015 -0.9045 -0.3015
vn 0.5774 -0.5774 0.5774
vn 0.6244 0.4694 0.6244
vn -0.6244 0.4694 0.6244
vn -0.5774 -0.5774 0.5774
vn 0.5774 -0.5774 -0.5774
vn 0.6244 0.4694 -0.6244
vn -0.5774 -0.5774 -0.5774
vn -0.6244 0.4694 -0.6244
# 20 vertex normals

vt 0.0711 0.7399 -51.9708
vt 0.0711 0.7205 -51.9708
vt 0.9394 0.7122 -51.9708
vt 0.9394 0.7316 -51.9708
vt 0.0094 0.4146 0.0000
vt 0.0333 0.4146 0.0000
vt 0.0333 0.6652 0.0000
vt 0.0094 0.6652 0.0000
vt 0.0588 0.4157 0.0000
vt 0.9378 0.4157 0.0000
vt 0.9378 0.6689 0.0000
vt 0.0588 0.6689 0.0000
vt 0.9666 0.4190 0.0000
vt 0.9902 0.4190 0.0000
vt 0.9902 0.6661 0.0000
vt 0.9666 0.6661 0.0000
vt 0.9347 0.1486 0.0000
vt 0.0558 0.1486 0.0000
vt 0.0558 0.4017 0.0000
vt 0.9347 0.4017 0.0000
vt 0.0605 0.6975 -51.9708
vt 0.0711 0.7092 -51.9708
vt 0.0711 0.7457 -51.9708
vt 0.0605 0.7558 -51.9708
vt 0.9531 0.6963 -51.9708
vt 0.9394 0.7064 -51.9708
vt 0.9531 0.7546 -51.9708
vt 0.9394 0.7429 -51.9708
vt 0.0492 0.7626 51.9708
vt 0.0492 0.6902 -51.9708
vt 0.9657 0.6895 -51.9708
vt 0.9657 0.7619 51.9708
# 32 texture coords

o strandkerites
g strandkerites
usemtl stone_fence
s 4
f 1/1/1 2/2/2 3/3/3 4/4/4 
s 8
f 5/5/5 6/6/6 7/7/7 8/8/8 
s 16
f 6/9/6 9/10/9 10/11/10 7/12/7 
s 32
f 9/13/9 11/14/11 12/15/12 10/16/10 
s 64
f 11/17/11 5/18/5 8/19/8 12/20/12 
s 8
f 13/21/13 14/22/14 15/23/15 16/24/16 
s 16
f 17/25/17 18/26/18 14/22/14 13/21/13 
s 32
f 19/27/19 20/28/20 18/26/18 17/25/17 
s 64
f 16/24/16 15/23/15 20/28/20 19/27/19 
s off
f 2/2/2 1/1/1 15/23/15 14/22/14 
f 1/1/1 4/4/4 20/28/20 15/23/15 
f 4/4/4 3/3/3 18/26/18 20/28/20 
f 3/3/3 2/2/2 14/22/14 18/26/18 
f 8/29/8 7/30/7 13/21/13 16/24/16 
f 7/30/7 10/31/10 17/25/17 13/21/13 
f 10/31/10 12/32/12 19/27/19 17/25/17 
f 12/32/12 8/29/8 16/24/16 19/27/19 
# 17 polygons

